<?xml version="1.0" encoding="UTF-8"?>
<svg id="Layer_2" data-name="Layer 2" xmlns="http://www.w3.org/2000/svg" viewBox="0 0 221.02 23.23">
  <defs>
    <style>
      .cls-1 {
        fill: #5c5042;
        stroke-width: 0px;
      }
    </style>
  </defs>
  <g id="Layer_1-2" data-name="Layer 1">
    <path class="cls-1" d="m9.22,23.23c-1.77,0-3.35-.36-4.74-1.09-1.39-.75-2.49-1.79-3.3-3.14-.79-1.34-1.18-2.94-1.18-4.8V.42h5.98v13.89c0,.7.13,1.33.38,1.89.28.53.65.96,1.12,1.28.49.32,1.07.48,1.73.48s1.24-.16,1.73-.48c.49-.32.86-.75,1.12-1.28.26-.55.38-1.18.38-1.89V.42h6.05v13.89c0,.7.13,1.33.38,1.89.26.53.63.96,1.12,1.28.49.32,1.07.48,1.73.48s1.23-.16,1.7-.48c.49-.32.86-.75,1.12-1.28.28-.55.42-1.18.42-1.89V.42h5.95v13.79c0,1.86-.39,3.46-1.18,4.8-.79,1.34-1.88,2.39-3.26,3.14-1.37.73-2.94,1.09-4.74,1.09-.85,0-1.66-.1-2.43-.29-.77-.19-1.47-.47-2.11-.83-.64-.36-1.22-.8-1.73-1.31-.51.49-1.09.93-1.73,1.31-.64.36-1.34.64-2.11.83-.75.19-1.55.29-2.4.29Zm32.69-.42c-1.26,0-2.41-.28-3.46-.83-1.04-.58-1.88-1.35-2.5-2.34-.6-1-.9-2.13-.9-3.39,0-.96.21-1.87.64-2.72.43-.85,1.02-1.58,1.79-2.18-.68-.58-1.24-1.26-1.66-2.05-.41-.81-.61-1.64-.61-2.5,0-1.24.3-2.34.9-3.3.6-.96,1.41-1.72,2.43-2.27s2.14-.83,3.36-.83h9.73v4.96h-8.51c-.38,0-.74.07-1.06.22-.3.15-.54.36-.74.64-.17.28-.26.61-.26.99,0,.36.08.68.26.96.19.26.44.47.74.64.32.15.67.22,1.06.22h7.39v4.93h-7.33c-.4,0-.77.09-1.09.26-.32.15-.58.37-.77.67-.17.3-.26.64-.26,1.02s.08.73.26,1.02c.19.28.45.5.77.67.32.15.68.22,1.09.22h8.45v4.96h-9.73Zm24.28.42c-1.11,0-2.1-.26-2.98-.77-.87-.53-1.5-1.31-1.89-2.34L54.41.42h6.46l4.99,16.67c.04.09.09.16.13.22.06.06.13.1.19.1.09,0,.16-.03.22-.1.06-.06.11-.14.13-.22L71.53.42h6.43l-6.88,19.68c-.38,1.05-1.02,1.83-1.92,2.37-.87.51-1.87.77-2.98.77Zm21.29-.42c-1.26,0-2.41-.28-3.46-.83-1.04-.58-1.88-1.35-2.5-2.34-.6-1-.9-2.13-.9-3.39,0-.96.21-1.87.64-2.72s1.02-1.58,1.79-2.18c-.68-.58-1.24-1.26-1.66-2.05-.4-.81-.61-1.64-.61-2.5,0-1.24.3-2.34.9-3.3.6-.96,1.41-1.72,2.43-2.27s2.14-.83,3.36-.83h9.73v4.96h-8.51c-.38,0-.74.07-1.06.22-.3.15-.54.36-.74.64-.17.28-.26.61-.26.99,0,.36.09.68.26.96.19.26.44.47.74.64.32.15.67.22,1.06.22h7.39v4.93h-7.33c-.4,0-.77.09-1.09.26-.32.15-.58.37-.77.67-.17.3-.26.64-.26,1.02s.09.73.26,1.02c.19.28.45.5.77.67.32.15.68.22,1.09.22h8.45v4.96h-9.73Zm30.59.42c-1.34,0-2.59-.29-3.74-.86-1.13-.6-2.04-1.42-2.72-2.46-.68-1.07-1.02-2.33-1.02-3.78V6.91c0-.32-.07-.6-.22-.83-.13-.26-.31-.45-.54-.58-.23-.13-.5-.19-.8-.19s-.57.06-.8.19c-.23.13-.43.32-.58.58-.15.23-.22.51-.22.83v15.9h-5.92V7.14c0-1.45.34-2.71,1.02-3.78.68-1.07,1.59-1.89,2.72-2.46,1.15-.6,2.41-.9,3.78-.9s2.61.3,3.74.9c1.13.58,2.04,1.4,2.72,2.46.68,1.07,1.02,2.33,1.02,3.78v9.22c0,.32.07.61.22.86.15.23.34.43.58.58.24.13.49.19.77.19s.53-.06.77-.19c.26-.15.46-.34.61-.58.15-.26.22-.54.22-.86V.42h5.92v15.71c0,1.45-.34,2.71-1.02,3.78-.68,1.05-1.6,1.87-2.75,2.46-1.13.58-2.38.86-3.74.86Zm24.21-.42c-1.39,0-2.62-.3-3.71-.9-1.07-.62-1.91-1.45-2.53-2.5-.6-1.05-.9-2.22-.9-3.52V5.38h-5.95V.42h17.92v4.96h-5.86v10.94c0,.43.15.79.45,1.09.3.3.65.45,1.06.45h1.98v4.96h-2.46Zm18.3.38c-1.92,0-3.62-.37-5.09-1.12-1.47-.77-2.62-1.85-3.46-3.23-.83-1.41-1.25-3.06-1.25-4.96V.42h6.05v13.76c0,.75.15,1.43.45,2.05.32.6.76,1.08,1.31,1.44.56.34,1.22.51,1.98.51s1.4-.17,1.95-.51c.55-.36.98-.84,1.28-1.44.3-.62.45-1.3.45-2.05V.42h6.05v13.47c0,1.9-.42,3.55-1.25,4.96-.83,1.39-1.98,2.46-3.46,3.23-1.45.75-3.12,1.12-5.02,1.12Zm14.62-.38V.42h10.4c1.58,0,3.01.34,4.29,1.02,1.28.66,2.3,1.59,3.07,2.78.77,1.17,1.15,2.55,1.15,4.13,0,1.37-.33,2.62-.99,3.78-.64,1.13-1.5,2.05-2.59,2.75l1.5,2.5c.13.19.27.34.42.45.17.09.4.13.67.13h1.79v4.86h-3.33c-1.07,0-2.02-.23-2.85-.7-.83-.49-1.47-1.12-1.92-1.89l-2.27-3.9h-3.23v6.5h-6.11Zm6.11-11.36h3.65c.53,0,1.02-.12,1.47-.35.47-.26.83-.62,1.09-1.09.28-.47.42-1.01.42-1.63s-.14-1.15-.42-1.6c-.28-.45-.64-.79-1.09-1.02-.45-.26-.94-.38-1.47-.38h-3.65v6.08Zm15.51,11.36l7.2-19.68c.4-1.05,1.04-1.82,1.92-2.34.88-.53,1.87-.8,2.98-.8s2.1.26,2.98.77c.9.51,1.54,1.29,1.92,2.34l7.2,19.71h-6.56l-1.31-4.1h-8.58l-1.38,4.1h-6.37Zm9.18-8.96h5.73l-2.46-8.1c-.02-.09-.06-.15-.13-.19-.06-.04-.14-.06-.22-.06-.06,0-.13.02-.19.06-.04.04-.09.11-.13.19l-2.59,8.1Z"/>
  </g>
</svg>